<?xml version="1.0" encoding="utf-8"?>
<!-- Generator: Adobe Illustrator 13.0.2, SVG Export Plug-In . SVG Version: 6.00 Build 14948)  -->
<!DOCTYPE svg PUBLIC "-//W3C//DTD SVG 1.1//EN" "http://www.w3.org/Graphics/SVG/1.1/DTD/svg11.dtd">
<svg version="1.1" id="Layer_1" xmlns="http://www.w3.org/2000/svg" xmlns:xlink="http://www.w3.org/1999/xlink" x="0px" y="0px"
	 width="500px" height="500px" viewBox="0 0 500 500" enable-background="new 0 0 500 500" xml:space="preserve">
<path fill="#FFFFFF" d="M0,0h500v500H0V0z"/>
<path fill="#0B0807" d="M48.61,19.58c6.51,0.19,12.85,1.77,19.25,2.79c88.09,14.41,177.84,18.49,266.86,12.09
	c36.57-2.57,73.05-6.67,109.23-12.62c3.18-0.52,6.41-0.58,9.63-0.58c0.479,21.24,0.08,42.5,0.21,63.74
	c0.03,73.69-0.05,147.38,0.05,221.061c-0.09,3.789-1.689,7.289-2.84,10.84c-11.55,34.56-31.84,65.879-57.18,91.92
	c-13.91,13.3-28.61,25.91-44.971,36.13c-24.119,15.12-50.39,27.02-77.97,34.17c-5.21,1.2-10.46,3.12-15.88,2.38
	c-21.37-2.56-42.2-8.76-61.83-17.51c-22.99-10.07-45.15-22.48-64.36-38.73c-6.64-5.71-13.29-11.399-19.63-17.45
	c-27.72-27.95-49.05-62.399-60.54-100.12c-0.83-4.17-0.07-8.439-0.16-12.649c0.01-70.35,0.01-140.7,0.01-211.04
	C48.6,62.53,48.3,41.05,48.61,19.58z"/>
<path fill="#A90501" d="M54.45,26.19c13.69,1.87,27.28,4.46,40.99,6.3c32.68,4.3,65.51,7.99,98.47,8.99c0.19,2.5,0.37,5,0.41,7.5
	c-0.19,34.01,0.06,68.01,0,102.02c-0.07,7.75,0.26,15.52-0.22,23.27c-9.04,0.65-18.05-0.46-27.06-1.11
	c-37.72-2.88-75.26-7.99-112.45-14.91c-0.27-4.75-0.32-9.5-0.22-14.25C54.47,104.73,54.29,65.46,54.45,26.19z"/>
<path fill="#A90501" d="M339.97,40.01c36.181-2.62,72.2-7.12,108.04-12.66c0.58,28.54,0.08,57.1,0.25,85.65
	c-0.17,15.65,0.34,31.32-0.229,46.96c-7.96,1.95-16.13,2.66-24.21,3.95c-27.11,4.08-54.42,6.73-81.721,9.22
	c-9.33,0.5-18.64,1.5-27.989,1.6c-0.74-7.89-0.28-15.82-0.36-23.73c-0.01-28.67-0.01-57.34,0-86c0.07-7.68-0.34-15.36,0.31-23.02
	C322.65,40.76,331.34,40.77,339.97,40.01z"/>
<path fill="#C8C8C8" d="M199.78,42.13c23.07,0.56,46.14,1.58,69.21,1.08c13.029-0.66,26.09-0.49,39.109-1.2
	c0.381,46.29-0.18,92.58,0.28,138.87c46.79-2.05,93.41-7.32,139.66-14.61c0.42,26.57,0.06,53.15,0.18,79.73
	c-0.149,8.79,0.37,17.59-0.34,26.37c-35.46,5.34-71.08,9.68-106.85,12.28c-10.86,1.119-21.84,0.779-32.65,2.359
	c-0.38,22.66-0.04,45.33-0.16,67.99c0.03,32.67-0.06,65.34,0.05,98.01c-0.039,2.46-0.27,4.92-0.56,7.37
	c-11.66,4.86-23.58,9.13-35.76,12.51c-6.49,1.771-13.24,3.36-19.99,2.29c-17.51-2.489-34.73-7.29-50.95-14.33
	c-0.54-23.279-0.07-46.569-0.23-69.85c0-28.33,0.01-56.67,0-85c-0.02-6.43,0.026-13.098,0.026-19.497
	c-25-0.771-50.406-2.913-75.296-5.413c-23.74-2.8-47.51-5.75-70.98-10.32c-0.08-35.49-0.04-70.99-0.03-106.479
	c39.88,7.14,80.08,12.76,120.53,15.33c8.16,0.32,16.37,1.9,24.51,0.44c0.33-5.68,0.28-11.37,0.24-17.06
	C199.79,122.71,199.77,82.42,199.78,42.13z"/>
<path fill="#0B0807" d="M244.03,185.73c6.37-0.16,12.57-2.09,18.97-1.87c17.109,0.44,34.3,1.94,50.91,6.24
	c9.68,3.21,19.51,6.04,28.859,10.15c4.971,2.12,10.49,1.57,15.601,3.11c6.64,1.88,13.64,1.51,20.37,0.38
	c5.84-1.09,11.58-3.61,17.64-2.68c-3.59,6.41-12.61,4.99-17.2,10.25c-0.84,1.15-1.6,2.75-0.649,4.08c1.97,3.79,6.38,5.12,9.689,7.44
	c2.54,1.44,4.04,4.01,5.88,6.18c2.11,2.57,5.53,3.3,8.49,4.47c0.32,3.05,1.47,6.22,0.57,9.25c-1.9,2.23-4.37,3.88-6.46,5.92
	c-1.45,1.17-2.71,2.97-4.75,3c-6.61,0.57-13.3,0.22-19.851,1.439c-3.25,0.67-5.779,3.21-9.08,3.721c-3.02,0.689-6.26,0.609-9.079,2
	c-2.57,2.199-3.91,5.459-6.171,7.949c-6.75,7.62-18.55,10.94-27.949,6.4c-3.721-1.49-6.19-4.811-9.5-6.9
	c-2.771-0.119-5.461,1.37-8.25,1.551c-37.74,2.969-75.75,2.26-113.41-1.601c-2.8-0.149-5.14-1.72-7.28-3.38
	c-4.75,3.52-8.92,8.199-14.8,9.82c-9.33,2.879-20.03-0.4-26.4-7.73c-1.97-2.09-3.64-4.74-6.44-5.8c-3.48,0.04-6.53,2.18-10,2.3
	c-4.4,0.13-8.8-0.25-13.2-0.42c-0.86-2.7-1.16-5.96-3.36-7.96c-2.78-0.99-5.79-0.94-8.69-1.24c0.09-1.66,0.12-3.32,0.11-4.98
	c1.83,0.19,3.67,0.4,5.51,0.58c-1.46-0.46-2.93-0.9-4.39-1.32c-0.45-3.72-1.32-8.75,2.46-11.08c3.41-0.38,8.27,1.48,10.21-2.46
	c1.28-4.68,0.04-10.07,2.87-14.29c2.54-2.85,6.65-3.35,10.23-3.88c14.83-0.44,29.67-1.07,44.52-0.85
	c7.81-0.06,15.76,0.43,23.43-1.35c3.43-0.79,5.99-3.47,9.3-4.54c4.45-1.62,9.56-1.5,13.52-4.34c6.65-4.22,11.62-10.47,17.82-15.24
	C236.85,185.71,240.65,186.03,244.03,185.73z"/>
<path fill="#C8C8C8" d="M247.7,192.57c5.76-2.31,12.2-1.63,18.29-1.72c6.82,0.34,13.89-0.56,20.41,1.93
	c-0.91,5.18-1.871,10.36-3.15,15.47c-0.5,1.83-1.17,4.28-3.391,4.58c-4.56,0.75-9.219,0.53-13.819,0.92
	c-9.56,0.25-19.25,1.34-28.71-0.57C240.53,206.22,243.22,198.81,247.7,192.57z"/>
<path fill="#C8C8C8" d="M232.38,199.34c3.54-3.02,6.87-6.85,11.77-7.51c-0.95,4.93-3.48,9.31-5.49,13.84
	c-1.2,2.38-2.24,4.95-4.2,6.82c-4.69,0.94-10.01,1.06-14.32-1.32C223.83,206.84,228.2,203.18,232.38,199.34z"/>
<path fill="#C8C8C8" d="M288.92,192.62c6.189,0.61,12.301,1.85,18.37,3.18c5.56,1.32,11.28,2.75,16,6.14
	c-2.04,3.22-4.18,6.77-7.78,8.41c-2.99,0.83-6.13,0.62-9.199,0.89c-7.181,0.54-14.381,1.31-21.601,1.01
	C285.57,205.6,286.92,199.01,288.92,192.62z"/>
<path fill="#A90501" d="M54.81,277.59c7.59,0.301,14.99,2.08,22.48,3.131c38.94,5.939,78.2,9.76,117.54,11.729
	c0.77,7.829,0.31,15.7,0.39,23.55c0.02,41.33,0,82.67,0.01,124c0.06,6.01,0.15,12.02-0.33,18.02c-7.15-2.409-13.76-6.079-20.45-9.5
	c-23.99-12.479-45.43-29.39-64.49-48.47c-23.44-24.81-42.39-54.229-53.25-86.69c-1.6-4.609-2.19-9.5-2.15-14.359
	C54.62,291.859,54.43,284.721,54.81,277.59z"/>
<path fill="#A90501" d="M314.07,292.2c44.85-2.29,89.529-7.16,133.93-13.841c0.12,12.591,1.77,25.75-2.94,37.771
	c-10.819,31.95-29.51,60.89-52.529,85.41c-22.63,22.81-48.79,42.61-78.41,55.4c-0.66-7.641-0.311-15.301-0.36-22.94
	c-0.04-44.67,0.05-89.35-0.05-134.01C313.75,297.38,313.91,294.79,314.07,292.2z"/>
</svg>
